<svg xmlns="http://www.w3.org/2000/svg" viewBox="0 0 400 400" role="img"><title>Illustration</title><defs><linearGradient id="w" x1="0" y1="0" x2="0" y2="1"><stop offset="0" stop-color="#bfe9ee"/><stop offset="1" stop-color="#5fb4c4"/></linearGradient></defs><rect width="400" height="400" fill="url(#w)"/><path d="M0,372 Q60,350 120,372 T240,372 T400,360 V400 H0Z" fill="#d9c9a2"/><path d="M30,372 q-10,-55 6,-90 M52,372 q10,-50 -4,-80" stroke="#3f9a6a" stroke-width="7" stroke-linecap="round" fill="none"/><g fill="none" stroke="#fff" stroke-width="3" opacity=".7"><circle cx="330" cy="90" r="9"/><circle cx="350" cy="60" r="6"/><circle cx="318" cy="52" r="4"/></g><path d="M80,300 C120,250 170,280 220,260 C270,240 300,240 330,210" stroke="#e8602c" stroke-width="46" stroke-linecap="round" fill="none"/><path d="M80,306 C120,262 170,290 220,272" stroke="#f6b13a" stroke-width="18" stroke-linecap="round" fill="none"/><path d="M290,238 l-12,38 M240,258 l-8,38 M150,276 l-14,34" stroke="#e8602c" stroke-width="12" stroke-linecap="round"/><circle cx="338" cy="206" r="7" fill="#fff"/><circle cx="340" cy="206" r="4" fill="#10343b"/></svg>