<svg xmlns="http://www.w3.org/2000/svg" viewBox="0 0 400 400" role="img"><title>Illustration</title><defs><linearGradient id="w" x1="0" y1="0" x2="0" y2="1"><stop offset="0" stop-color="#bfe9ee"/><stop offset="1" stop-color="#5fb4c4"/></linearGradient></defs><rect width="400" height="400" fill="url(#w)"/><path d="M0,372 Q60,350 120,372 T240,372 T400,360 V400 H0Z" fill="#d9c9a2"/><path d="M30,372 q-10,-55 6,-90 M52,372 q10,-50 -4,-80" stroke="#3f9a6a" stroke-width="7" stroke-linecap="round" fill="none"/><g fill="none" stroke="#fff" stroke-width="3" opacity=".7"><circle cx="330" cy="90" r="9"/><circle cx="350" cy="60" r="6"/><circle cx="318" cy="52" r="4"/></g><path d="M119,215 L57,180 Q75,215 57,250Z" fill="#4bc6d8" opacity=".9"/><path d="M170,191 Q200,149 230,193Z" fill="#4bc6d8"/><path d="M180,237 Q200,275 220,237Z" fill="#4bc6d8" opacity=".85"/><ellipse cx="190" cy="215" rx="85" ry="30" fill="#5bcca4"/><clipPath id="b"><ellipse cx="190" cy="215" rx="85" ry="30"/></clipPath><g clip-path="url(#b)"><ellipse cx="200" cy="234" rx="85" ry="18" fill="#c5f7e6" opacity=".75"/></g><circle cx="243" cy="210" r="11" fill="#fff"/><circle cx="245" cy="210" r="6" fill="#10343b"/><circle cx="247" cy="208" r="2" fill="#fff"/><path d="M260,222 q10,6 18,-2" stroke="#10343b" stroke-width="3" fill="none" stroke-linecap="round" opacity=".6"/></svg>